<svg width="108" height="84" viewBox="0 0 108 84" fill="none" xmlns="http://www.w3.org/2000/svg">
<path d="M0 63.796C0 67.3867 0.877744 70.6982 2.63323 73.7304C4.38872 76.7626 6.78256 79.1565 9.81477 80.912C12.847 82.6675 16.1186 83.5452 19.6694 83.5452H62.8783C66.4292 83.5452 69.7407 82.6675 72.7729 80.912C75.8051 79.1565 78.2388 76.7626 79.9943 73.7304C81.7498 70.6982 82.6675 67.3867 82.6675 63.796C82.6675 61.1627 82.1089 58.4896 80.9918 55.8165C84.024 52.1459 85.5401 47.7173 85.5401 42.6503C85.5401 39.8176 84.9815 37.1046 83.9043 34.5113C82.827 31.9179 81.3109 29.7236 79.4358 27.8484C77.5606 25.9732 75.3662 24.4571 72.7729 23.3799C70.1796 22.2628 67.4665 21.7441 64.6338 21.7441C58.729 21.7441 53.5822 24.0581 49.1536 28.6862C46.0815 26.9308 42.4908 26.053 38.3813 26.053C32.7558 26.053 27.8085 27.8085 23.4996 31.2796C19.1907 34.7507 16.3978 39.2192 15.2009 44.6452C10.7324 45.6826 7.10174 47.9567 4.26902 51.5475C1.43631 55.1382 0 59.2078 0 63.796ZM6.82246 63.796C6.82246 60.4446 7.93959 57.572 10.1738 55.1382C12.4081 52.7045 15.2009 51.3081 18.5523 50.9091L20.5472 50.7894C21.0259 50.7894 21.3052 50.55 21.3052 50.0713L21.5845 47.9168C22.1431 43.6079 24.0182 39.9772 27.21 37.1046C30.4018 34.1921 34.1522 32.7558 38.4212 32.7558C42.8099 32.7558 46.6401 34.232 49.8718 37.1445C53.1434 40.057 54.9388 43.6478 55.3377 47.9567L55.617 50.2708C55.6968 50.7096 55.9761 50.949 56.4548 50.949H62.8783C66.3893 50.949 69.4215 52.2257 71.975 54.7792C74.5284 57.3326 75.8051 60.3249 75.8051 63.8359C75.8051 67.4665 74.5284 70.5386 72.0148 73.0921C69.5013 75.6455 66.4292 76.9222 62.9182 76.9222H19.6694C16.1585 76.9222 13.1661 75.6455 10.6127 73.0522C8.09918 70.4588 6.82246 67.3867 6.82246 63.796ZM33.5537 14.8418C33.5537 15.7994 33.8729 16.6372 34.5113 17.3554L37.1445 19.9088C38.1419 20.6669 38.9798 20.986 39.6979 20.9063C40.5358 20.9063 41.2539 20.5472 41.8923 19.8689C42.5307 19.1907 42.8498 18.3528 42.8498 17.3953C42.8498 16.4377 42.4908 15.6398 41.8125 15.0413L39.4585 12.4081C38.7404 11.7697 37.9424 11.4506 37.0248 11.4506C36.0673 11.4506 35.2294 11.7697 34.5512 12.448C33.8729 13.0864 33.5537 13.8843 33.5537 14.8418ZM54.859 32.5164C57.6119 29.8433 60.8835 28.5267 64.6338 28.5267C68.5837 28.5267 71.9351 29.8832 74.688 32.6361C77.4409 35.389 78.8373 38.7005 78.8373 42.6503C78.8373 45.124 78.159 47.5976 76.8025 49.9915C72.9325 46.1613 68.3044 44.2462 62.8783 44.2462H61.6016C60.6042 39.8974 58.3699 35.9875 54.859 32.5164ZM61.3622 11.4506C61.3622 12.4879 61.6814 13.2858 62.2799 13.9242C62.8783 14.5626 63.6763 14.8418 64.6338 14.8418C65.6712 14.8418 66.4691 14.5227 67.1075 13.9242C67.7458 13.2858 68.0251 12.4879 68.0251 11.4506V3.27159C68.0251 2.31405 67.7059 1.556 67.0676 0.917641C66.4292 0.279282 65.6313 0 64.6338 0C63.6763 0 62.9182 0.319179 62.2799 0.917641C61.6415 1.5161 61.3622 2.31405 61.3622 3.27159V11.4506ZM83.3856 20.5871C83.3856 21.6244 83.6649 22.4224 84.2634 23.0607C85.1012 23.6991 85.939 24.0182 86.737 24.0182C87.4551 24.0182 88.2531 23.6991 89.0909 23.0607L94.7963 17.3554C95.4346 16.6372 95.7538 15.7994 95.7538 14.8019C95.7538 13.8444 95.4346 13.0465 94.7963 12.4081C94.1579 11.7697 93.36 11.4506 92.4423 11.4506C91.4848 11.4506 90.7267 11.7697 90.1283 12.4081L84.2634 18.1134C83.6649 18.8715 83.3856 19.6694 83.3856 20.5871ZM86.5375 67.8256C86.5375 68.7832 86.8567 69.621 87.5349 70.3392L90.1283 72.8527C90.7267 73.4911 91.4848 73.8102 92.4423 73.8102C93.3999 73.8102 94.1978 73.4911 94.8362 72.8128C95.4745 72.1345 95.7937 71.3366 95.7937 70.3392C95.7937 69.4614 95.4745 68.6635 94.8362 68.0251L92.2428 65.4318C91.6045 64.7934 90.8464 64.4742 89.9687 64.4742C89.0111 64.4742 88.2132 64.7934 87.5748 65.4318C86.8966 66.0701 86.5375 66.8681 86.5375 67.8256ZM92.4024 42.6503C92.4024 43.568 92.7615 44.326 93.4398 44.9644C94.0781 45.6028 94.916 45.9219 95.8735 45.9219H104.013C104.93 45.9219 105.688 45.6028 106.327 45.0043C106.965 44.4058 107.244 43.6079 107.244 42.6503C107.244 41.6928 106.925 40.8949 106.327 40.2565C105.728 39.6181 104.93 39.2591 104.013 39.2591H95.8735C94.916 39.2591 94.118 39.5782 93.4398 40.2565C92.7216 40.9348 92.4024 41.7327 92.4024 42.6503Z" fill="#C2D8B9"/>
</svg>
